{"title":"The.Hornet's.Nest.2014.WEBRip.XviD.AC3-N3kr4","uid":11021171,"size":1731783838,"categoryP":"video","categoryS":"hd___movies","magnet":"?xt=urn:btih:898a168b3bca3c0d7bc12f41a5634136e470b277&amp;dn=The.Hornet%27s.Nest.2014.WEBRip.XviD.AC3-N3kr4&amp;tr=udp%3A%2F%2Ftracker.openbittorrent.com%3A80&amp;tr=udp%3A%2F%2Fopen.demonii.com%3A1337&amp;tr=udp%3A%2F%2Ftracker.coppersurfer.tk%3A6969&amp;tr=udp%3A%2F%2Fexodus.desync.com%3A6969","seeders":3,"leechers":0,"uploader":"Falcon.G13","files":2,"time":1410575233,"description":" &lt;a href=&quot;http://i.imgur.com/SQkF22h.jpg&quot; rel=&quot;nofollow&quot; target=&quot;_NEW&quot;&gt;http://i.imgur.com/SQkF22h.jpg&lt;/a&gt; &lt;a href=&quot;\nhttp://i.imgur.com/HiMg51L.jpg&quot; rel=&quot;nofollow&quot; target=&quot;_NEW&quot;&gt;\nhttp://i.imgur.com/HiMg51L.jpg&lt;/a&gt; &lt;a href=&quot;\nhttp://i.imgur.com/eilkXYI.jpg&quot; rel=&quot;nofollow&quot; target=&quot;_NEW&quot;&gt;\nhttp://i.imgur.com/eilkXYI.jpg&lt;/a&gt; &lt;a href=&quot;\nhttp://i.imgur.com/P461Bci.jpg&quot; rel=&quot;nofollow&quot; target=&quot;_NEW&quot;&gt;\nhttp://i.imgur.com/P461Bci.jpg&lt;/a&gt; &lt;a href=&quot;\nhttp://i.imgur.com/UUoCVbA.jpg&quot; rel=&quot;nofollow&quot; target=&quot;_NEW&quot;&gt;\nhttp://i.imgur.com/UUoCVbA.jpg&lt;/a&gt;\n\nGeneral\nComplete name : The.Hornet's.Nest.2014.WEBRip.XviD.AC3-N3kr4.avi\nFormat : AVI\nFormat/Info : Audio Video Interleave\nFormat profile : OpenDML\nFile size : 1.61 GiB\nDuration : 1h 36mn\nOverall bit rate : 2 391 Kbps\nWriting application : Lavf55.7.100\n\nVideo\nID : 0\nFormat : MPEG-4 Visual\nFormat profile : Advanced Simple@L1\nFormat settings, BVOP : No\nFormat settings, QPel : No\nFormat settings, GMC : No warppoints\nFormat settings, Matrix : Default (H.263)\nCodec ID : XVID\nCodec ID/Hint : XviD\nDuration : 1h 36mn\nBit rate : 1 738 Kbps\nWidth : 720 pixels\nHeight : 400 pixels\nDisplay aspect ratio : 16:9\nFrame rate : 29.970 fps\nColor space : YUV\nChroma subsampling : 4:2:0\nBit depth : 8 bits\nScan type : Progressive\nCompression mode : Lossy\nBits/(Pixel*Frame) : 0.201\nStream size : 1.17 GiB (73%)\nWriting library : Lavc55.12.100\n\nAudio\nID : 1\nFormat : AC-3\nFormat/Info : Audio Coding 3\nMode extension : CM (complete main)\nFormat settings, Endianness : Big\nCodec ID : 2000\nDuration : 1h 36mn\nBit rate mode : Constant\nBit rate : 640 Kbps\nChannel(s) : 6 channels\nChannel positions : Front: L C R, Side: L R, LFE\nSampling rate : 48.0 KHz\nBit depth : 16 bits\nCompression mode : Lossy\nStream size : 442 MiB (27%)\nAlignment : Aligned on interleaves\nInterleave, duration : 32 ms (0.96 video frame)\nInterleave, preload duration : 32 ms","torrent":{"xt":"urn:btih:898a168b3bca3c0d7bc12f41a5634136e470b277","amp;dn":"The.Hornet%27s.Nest.2014.WEBRip.XviD.AC3-N3kr4","amp;tr":["udp%3A%2F%2Ftracker.openbittorrent.com%3A80","udp%3A%2F%2Fopen.demonii.com%3A1337","udp%3A%2F%2Ftracker.coppersurfer.tk%3A6969","udp%3A%2F%2Fexodus.desync.com%3A6969"],"infoHash":"898a168b3bca3c0d7bc12f41a5634136e470b277","infoHashBuffer":{"type":"Buffer","data":[137,138,22,139,59,202,60,13,123,193,47,65,165,99,65,54,228,112,178,119]},"announce":[],"urlList":[]}}